<?xml version="1.0" encoding="UTF-8" standalone="no"?>
<!-- Created with Inkscape (http://www.inkscape.org/) -->

<svg
   xmlns:dc="http://purl.org/dc/elements/1.1/"
   xmlns:cc="http://creativecommons.org/ns#"
   xmlns:rdf="http://www.w3.org/1999/02/22-rdf-syntax-ns#"
   xmlns:svg="http://www.w3.org/2000/svg"
   xmlns="http://www.w3.org/2000/svg"
   xmlns:inkscape="http://www.inkscape.org/namespaces/inkscape"
   version="1.1"
   width="22.5"
   height="22.5"
   id="svg2"
   xml:space="preserve"><metadata
     id="metadata8"><rdf:RDF><cc:Work
         rdf:about=""><dc:format>image/svg+xml</dc:format><dc:type
           rdf:resource="http://purl.org/dc/dcmitype/StillImage" /></cc:Work></rdf:RDF></metadata><defs
     id="defs6"><clipPath
       id="clipPath18"><path
         d="M 0,18 18,18 18,0 0,0 0,18 z"
         inkscape:connector-curvature="0"
         id="path20" /></clipPath></defs><g
     transform="matrix(1.25,0,0,-1.25,0,22.5)"
     id="g10"><path
       d="M 0,0 18,0 18,18 0,18 0,0 z"
       inkscape:connector-curvature="0"
       id="path12"
       style="fill:#7a878e;fill-opacity:1;fill-rule:nonzero;stroke:none" /><g
       id="g14"><g
         clip-path="url(#clipPath18)"
         id="g16"><g
           transform="translate(17,9)"
           id="g22"><path
             d="m 0,0 c 0,-4.418 -3.582,-8 -8,-8 -4.417,0 -8,3.582 -8,8 0,4.417 3.583,8 8,8 4.418,0 8,-3.583 8,-8 z"
             inkscape:connector-curvature="0"
             id="path24"
             style="fill:none;stroke:#ffffff;stroke-width:2;stroke-linecap:butt;stroke-linejoin:miter;stroke-miterlimit:4;stroke-opacity:1;stroke-dasharray:none" /></g></g></g><g
       transform="translate(5,9)"
       id="g26"><path
         d="M 0,0 7,0"
         inkscape:connector-curvature="0"
         id="path28"
         style="fill:#7a878e;fill-opacity:1;fill-rule:nonzero;stroke:#ffffff;stroke-width:2;stroke-linecap:round;stroke-linejoin:miter;stroke-miterlimit:4;stroke-opacity:1;stroke-dasharray:none" /></g><g
       transform="translate(9.9707,12)"
       id="g30"><path
         d="M 0,0 3.029,-3.029"
         inkscape:connector-curvature="0"
         id="path32"
         style="fill:#7a878e;fill-opacity:1;fill-rule:nonzero;stroke:#ffffff;stroke-width:2;stroke-linecap:round;stroke-linejoin:miter;stroke-miterlimit:4;stroke-opacity:1;stroke-dasharray:none" /></g><g
       transform="translate(12.9707,8.9702)"
       id="g34"><path
         d="M 0,0 -3.028,-3.029"
         inkscape:connector-curvature="0"
         id="path36"
         style="fill:#7a878e;fill-opacity:1;fill-rule:nonzero;stroke:#ffffff;stroke-width:2;stroke-linecap:round;stroke-linejoin:miter;stroke-miterlimit:4;stroke-opacity:1;stroke-dasharray:none" /></g></g></svg>