<?xml version="1.0" encoding="utf-8"?>
<!-- Generator: Adobe Illustrator 13.0.0, SVG Export Plug-In . SVG Version: 6.00 Build 14948)  -->
<!DOCTYPE svg PUBLIC "-//W3C//DTD SVG 1.1//EN" "http://www.w3.org/Graphics/SVG/1.1/DTD/svg11.dtd">
<svg version="1.1" id="Layer_1" xmlns="http://www.w3.org/2000/svg" xmlns:xlink="http://www.w3.org/1999/xlink" x="0px" y="0px"
	 width="275px" height="90px" viewBox="0 0 275 90" enable-background="new 0 0 275 90" xml:space="preserve">
<rect fill="#1F1E1E" width="275" height="90"/>
<g>
	<g>
		<path fill="#E1DADA" d="M69.936,44.49h-8.773l-2.294-6.659h-12.19l-2.295,6.659h-8.561l12.167-32.94h9.779L69.936,44.49z
			 M56.826,31.793l-4.053-11.801l-4.053,11.801H56.826z"/>
		<path fill="#E1DADA" d="M97.009,34.138c0,3.245-1.376,5.881-4.125,7.908c-2.751,2.029-6.487,3.042-11.207,3.042
			c-2.729,0-5.107-0.24-7.135-0.718c-2.028-0.48-3.927-1.088-5.697-1.826v-7.897h0.93c1.754,1.4,3.72,2.477,5.896,3.23
			c2.175,0.751,4.266,1.128,6.272,1.128c0.516,0,1.194-0.046,2.035-0.134c0.84-0.087,1.527-0.234,2.058-0.441
			c0.648-0.267,1.184-0.599,1.604-0.996s0.63-0.988,0.63-1.77c0-0.723-0.306-1.346-0.918-1.869
			c-0.612-0.523-1.509-0.925-2.688-1.206c-1.239-0.295-2.548-0.571-3.926-0.83c-1.38-0.257-2.674-0.585-3.883-0.984
			c-2.773-0.899-4.767-2.119-5.984-3.661c-1.216-1.542-1.825-3.456-1.825-5.741c0-3.068,1.375-5.572,4.126-7.511
			c2.75-1.939,6.286-2.908,10.607-2.908c2.168,0,4.311,0.208,6.427,0.629c2.116,0.42,3.949,0.949,5.498,1.583v7.587h-0.907
			c-1.328-1.062-2.955-1.95-4.878-2.665c-1.925-0.716-3.89-1.073-5.896-1.073c-0.708,0-1.413,0.048-2.113,0.144
			c-0.701,0.097-1.375,0.277-2.024,0.543c-0.575,0.221-1.069,0.556-1.482,1.005c-0.413,0.451-0.62,0.964-0.62,1.538
			c0,0.871,0.332,1.537,0.996,2.002c0.663,0.465,1.917,0.889,3.76,1.272c1.209,0.251,2.371,0.495,3.484,0.73
			c1.113,0.236,2.312,0.561,3.595,0.974c2.521,0.827,4.384,1.951,5.586,3.374C96.408,30.019,97.009,31.865,97.009,34.138z"/>
		<path fill="#E1DADA" d="M113.396,41.858c-0.428,0.324-0.959,0.716-1.593,1.173c-0.635,0.458-1.232,0.818-1.793,1.084
			c-0.781,0.354-1.592,0.616-2.433,0.784c-0.841,0.17-1.764,0.255-2.765,0.255c-2.36,0-4.337-0.729-5.93-2.189
			c-1.592-1.46-2.389-3.325-2.389-5.598c0-1.813,0.405-3.295,1.216-4.446c0.811-1.15,1.962-2.059,3.452-2.723
			c1.475-0.662,3.304-1.135,5.486-1.415c2.183-0.279,4.448-0.486,6.792-0.619v-0.133c0-1.372-0.56-2.319-1.682-2.843
			c-1.12-0.524-2.772-0.786-4.955-0.786c-1.313,0-2.714,0.233-4.204,0.697c-1.49,0.465-2.559,0.822-3.208,1.072h-0.73v-5.995
			c0.841-0.221,2.208-0.483,4.104-0.785c1.896-0.303,3.794-0.454,5.697-0.454c4.527,0,7.798,0.697,9.812,2.09
			c2.013,1.395,3.019,3.581,3.019,6.56V44.49h-7.897V41.858z M113.396,37.992V32.83c-1.077,0.091-2.243,0.211-3.496,0.366
			c-1.254,0.153-2.205,0.334-2.854,0.541c-0.797,0.249-1.405,0.613-1.826,1.09c-0.42,0.479-0.63,1.107-0.63,1.887
			c0,0.514,0.044,0.934,0.133,1.257s0.309,0.632,0.663,0.926c0.339,0.294,0.745,0.511,1.217,0.651
			c0.472,0.139,1.209,0.208,2.212,0.208c0.797,0,1.605-0.161,2.423-0.484C112.058,38.948,112.777,38.522,113.396,37.992z"/>
		<path fill="#E1DADA" d="M140.691,15.908h-0.597c-0.353-0.102-0.813-0.221-1.379-0.354c-0.565-0.133-1.173-0.198-1.82-0.198
			c-1.559,0-2.614,0.28-3.166,0.839c-0.551,0.561-0.827,1.646-0.827,3.252v0.199h6.128v5.398h-5.863V44.49h-7.986V25.045h-3.407
			v-5.398h3.407v-0.686c0-3.039,0.808-5.317,2.422-6.836c1.616-1.52,4.06-2.279,7.334-2.279c1.18,0,2.249,0.041,3.208,0.122
			s1.807,0.188,2.545,0.321V15.908z"/>
		<path fill="#E1DADA" d="M154.733,41.858c-0.428,0.324-0.961,0.716-1.594,1.173c-0.634,0.458-1.231,0.818-1.792,1.084
			c-0.78,0.354-1.593,0.616-2.434,0.784c-0.841,0.17-1.763,0.255-2.765,0.255c-2.36,0-4.337-0.729-5.929-2.189
			c-1.594-1.46-2.39-3.325-2.39-5.598c0-1.813,0.405-3.295,1.216-4.446c0.813-1.15,1.963-2.059,3.452-2.723
			c1.475-0.662,3.303-1.135,5.486-1.415c2.183-0.279,4.446-0.486,6.791-0.619v-0.133c0-1.372-0.561-2.319-1.681-2.843
			c-1.122-0.524-2.774-0.786-4.956-0.786c-1.312,0-2.713,0.233-4.202,0.697c-1.49,0.465-2.561,0.822-3.209,1.072H140v-5.995
			c0.84-0.221,2.207-0.483,4.102-0.785c1.896-0.303,3.794-0.454,5.697-0.454c4.527,0,7.799,0.697,9.812,2.09
			c2.014,1.395,3.021,3.581,3.021,6.56V44.49h-7.897V41.858z M154.733,37.992V32.83c-1.076,0.091-2.242,0.211-3.496,0.366
			c-1.254,0.153-2.206,0.334-2.854,0.541c-0.796,0.249-1.404,0.613-1.825,1.09c-0.42,0.479-0.63,1.107-0.63,1.887
			c0,0.514,0.044,0.934,0.132,1.257c0.09,0.323,0.311,0.632,0.664,0.926c0.34,0.294,0.745,0.511,1.217,0.651
			c0.473,0.139,1.209,0.208,2.213,0.208c0.796,0,1.604-0.161,2.422-0.484C153.395,38.948,154.113,38.522,154.733,37.992z"/>
		<path fill="#E1DADA" d="M211.828,11.55l-8.873,32.94h-9.418l-5.892-21.459l-5.759,21.459h-9.396l-8.87-32.94h8.867l5.054,22.674
			l6.078-22.674h8.474l5.768,22.674l5.307-22.674H211.828z"/>
		<path fill="#E1DADA" d="M237.483,33.539h-18.229c0.117,1.947,0.858,3.438,2.223,4.471c1.364,1.032,3.375,1.548,6.029,1.548
			c1.681,0,3.31-0.303,4.89-0.906c1.577-0.605,2.823-1.255,3.739-1.946h0.885v6.391c-1.801,0.725-3.496,1.249-5.09,1.572
			c-1.592,0.324-3.354,0.486-5.287,0.486c-4.986,0-8.805-1.119-11.46-3.361c-2.654-2.243-3.983-5.436-3.983-9.581
			c0-4.1,1.258-7.348,3.772-9.745c2.517-2.397,5.964-3.594,10.344-3.594c4.04,0,7.08,1.021,9.115,3.063s3.052,4.981,3.052,8.815
			V33.539z M229.563,28.871c-0.045-1.666-0.457-2.92-1.238-3.76c-0.782-0.841-1.999-1.261-3.65-1.261
			c-1.534,0-2.795,0.398-3.783,1.195c-0.989,0.796-1.54,2.072-1.659,3.826H229.563z"/>
		<path fill="#E1DADA" d="M265,31.727c0,3.907-1.08,7.094-3.236,9.557c-2.16,2.463-4.853,3.695-8.078,3.695
			c-1.384,0-2.599-0.147-3.646-0.443c-1.046-0.295-2.04-0.723-2.981-1.283l-0.332,1.238h-7.653V10.067h7.985v12.168
			c1.223-0.973,2.472-1.762,3.745-2.368c1.274-0.604,2.744-0.907,4.41-0.907c3.136,0,5.552,1.132,7.246,3.396
			C264.151,24.621,265,27.743,265,31.727z M256.792,31.893c0-2.209-0.376-3.91-1.126-5.102c-0.751-1.194-2.09-1.791-4.018-1.791
			c-0.75,0-1.523,0.115-2.316,0.343c-0.795,0.228-1.554,0.556-2.274,0.983v12.458c0.574,0.206,1.119,0.347,1.633,0.419
			c0.516,0.074,1.133,0.11,1.854,0.11c2.104,0,3.672-0.618,4.702-1.854C256.276,36.223,256.792,34.367,256.792,31.893z"/>
	</g>
	<g>
		<polygon fill="none" points="30.774,11.557 18.61,44.491 18.619,44.491 30.782,11.557 		"/>
		<polygon fill="#467B3A" points="39.393,11.557 27.23,44.491 35.827,44.491 47.99,11.557 		"/>
		<polygon fill="#E09926" points="39.379,11.557 30.782,11.557 18.619,44.491 27.217,44.491 		"/>
		<polygon fill="#D2CA3A" points="27.217,44.491 27.23,44.491 39.393,11.557 39.379,11.557 		"/>
		<polygon fill="#B22025" points="30.774,11.557 22.163,11.557 10,44.491 18.61,44.491 		"/>
	</g>
</g>
<g>
	<path fill="#E1DADA" d="M20.629,61.58h-2.694l-0.705-2.046h-3.744l-0.705,2.046h-2.629l3.737-10.118h3.003L20.629,61.58z
		 M16.603,57.68l-1.245-3.624l-1.245,3.624H16.603z"/>
	<path fill="#E1DADA" d="M29.551,61.58h-2.453v-0.843c-0.453,0.344-0.866,0.606-1.242,0.785c-0.375,0.179-0.823,0.268-1.343,0.268
		c-0.841,0-1.49-0.242-1.944-0.727c-0.455-0.485-0.682-1.2-0.682-2.147V53.95h2.453v3.784c0,0.384,0.013,0.705,0.038,0.961
		c0.024,0.257,0.083,0.468,0.173,0.636c0.086,0.167,0.216,0.29,0.391,0.366c0.174,0.077,0.418,0.116,0.73,0.116
		c0.208,0,0.439-0.039,0.693-0.116c0.253-0.076,0.498-0.19,0.733-0.339V53.95h2.453V61.58z"/>
	<path fill="#E1DADA" d="M36.739,61.513c-0.263,0.068-0.542,0.12-0.836,0.159c-0.294,0.038-0.654,0.058-1.08,0.058
		c-0.951,0-1.659-0.192-2.124-0.577c-0.464-0.386-0.696-1.045-0.696-1.978v-3.567h-1.005V53.95h1.005v-2.182h2.453v2.182h2.283
		v1.657h-2.283v2.708c0,0.269,0.002,0.502,0.007,0.701c0.005,0.199,0.041,0.378,0.108,0.537c0.063,0.159,0.175,0.285,0.335,0.379
		c0.161,0.093,0.394,0.139,0.701,0.139c0.126,0,0.292-0.027,0.498-0.082c0.205-0.054,0.349-0.104,0.43-0.149h0.203V61.513z"/>
	<path fill="#E1DADA" d="M46,57.768c0,1.255-0.366,2.244-1.098,2.967c-0.731,0.722-1.758,1.083-3.081,1.083
		c-1.323,0-2.35-0.361-3.081-1.083c-0.732-0.723-1.098-1.712-1.098-2.967c0-1.263,0.368-2.256,1.104-2.976
		c0.737-0.721,1.762-1.08,3.075-1.08c1.332,0,2.361,0.362,3.088,1.087C45.636,55.523,46,56.513,46,57.768z M42.99,59.623
		c0.158-0.194,0.277-0.43,0.357-0.704c0.079-0.273,0.119-0.653,0.119-1.137c0-0.449-0.041-0.825-0.123-1.129
		c-0.081-0.304-0.195-0.546-0.339-0.727c-0.145-0.187-0.319-0.316-0.523-0.395c-0.204-0.077-0.423-0.114-0.659-0.114
		c-0.235,0-0.444,0.031-0.628,0.094c-0.183,0.063-0.358,0.19-0.526,0.381c-0.149,0.178-0.268,0.419-0.357,0.728
		c-0.088,0.308-0.132,0.694-0.132,1.162c0,0.416,0.039,0.777,0.116,1.083c0.077,0.306,0.19,0.552,0.339,0.737
		c0.145,0.176,0.318,0.306,0.52,0.387c0.202,0.082,0.432,0.123,0.69,0.123c0.222,0,0.434-0.038,0.636-0.112
		C42.679,59.925,42.85,59.8,42.99,59.623z"/>
	<path fill="#E1DADA" d="M55.207,56.171v5.409h-2.453v-3.813c0-0.371-0.009-0.687-0.027-0.947c-0.018-0.26-0.068-0.473-0.149-0.636
		s-0.205-0.282-0.37-0.356c-0.166-0.075-0.397-0.111-0.697-0.111c-0.24,0-0.473,0.048-0.7,0.145c-0.226,0.098-0.43,0.201-0.611,0.31
		v5.409h-2.453v-7.63h2.453v0.842c0.421-0.331,0.823-0.589,1.208-0.775c0.384-0.185,0.81-0.277,1.275-0.277
		c0.502,0,0.946,0.111,1.331,0.336c0.384,0.224,0.685,0.554,0.902,0.989c0.488-0.413,0.963-0.737,1.425-0.973
		c0.461-0.235,0.914-0.353,1.357-0.353c0.823,0,1.448,0.246,1.875,0.739c0.428,0.495,0.642,1.206,0.642,2.135v4.967h-2.453v-3.813
		c0-0.375-0.008-0.692-0.023-0.951c-0.016-0.258-0.064-0.469-0.146-0.632c-0.077-0.163-0.199-0.282-0.367-0.356
		c-0.167-0.075-0.403-0.111-0.707-0.111c-0.204,0-0.403,0.034-0.598,0.104C55.725,55.891,55.487,56.008,55.207,56.171z"/>
	<path fill="#E1DADA" d="M67.097,60.771c-0.131,0.1-0.294,0.22-0.489,0.359c-0.195,0.141-0.378,0.251-0.55,0.333
		c-0.24,0.108-0.489,0.188-0.748,0.241s-0.542,0.078-0.849,0.078c-0.725,0-1.332-0.224-1.821-0.673
		c-0.489-0.447-0.733-1.021-0.733-1.719c0-0.557,0.124-1.012,0.374-1.365s0.603-0.632,1.06-0.836
		c0.453-0.204,1.014-0.35,1.685-0.435c0.67-0.086,1.366-0.149,2.086-0.19v-0.041c0-0.421-0.172-0.712-0.517-0.873
		c-0.344-0.16-0.852-0.241-1.522-0.241c-0.403,0-0.833,0.071-1.291,0.215c-0.457,0.142-0.786,0.251-0.985,0.329h-0.225v-1.841
		c0.258-0.069,0.679-0.148,1.26-0.242c0.582-0.093,1.166-0.139,1.75-0.139c1.391,0,2.395,0.213,3.014,0.642
		c0.618,0.428,0.927,1.1,0.927,2.015v5.191h-2.426V60.771z M67.097,59.584v-1.585c-0.331,0.027-0.688,0.064-1.074,0.111
		c-0.385,0.048-0.677,0.104-0.876,0.166c-0.245,0.077-0.432,0.189-0.56,0.336c-0.13,0.146-0.194,0.34-0.194,0.579
		c0,0.157,0.013,0.286,0.041,0.386c0.027,0.099,0.095,0.194,0.204,0.284c0.104,0.091,0.229,0.156,0.374,0.199
		c0.145,0.043,0.372,0.065,0.679,0.065c0.245,0,0.493-0.05,0.745-0.148C66.686,59.877,66.907,59.746,67.097,59.584z"/>
	<path fill="#E1DADA" d="M76.65,61.513c-0.263,0.068-0.542,0.12-0.836,0.159c-0.294,0.038-0.654,0.058-1.081,0.058
		c-0.951,0-1.659-0.192-2.124-0.577c-0.464-0.386-0.696-1.045-0.696-1.978v-3.567h-1.006V53.95h1.006v-2.182h2.453v2.182h2.283
		v1.657h-2.283v2.708c0,0.269,0.002,0.502,0.007,0.701s0.041,0.378,0.108,0.537c0.063,0.159,0.175,0.285,0.335,0.379
		c0.16,0.093,0.394,0.139,0.701,0.139c0.126,0,0.293-0.027,0.498-0.082c0.206-0.054,0.349-0.104,0.43-0.149h0.204V61.513z"/>
	<path fill="#E1DADA" d="M85.625,58.217h-5.599c0.036,0.598,0.264,1.055,0.683,1.371c0.419,0.318,1.037,0.478,1.852,0.478
		c0.516,0,1.017-0.094,1.501-0.279c0.484-0.187,0.868-0.385,1.148-0.599h0.271v1.965c-0.552,0.222-1.073,0.383-1.563,0.481
		c-0.489,0.1-1.031,0.149-1.624,0.149c-1.531,0-2.704-0.344-3.52-1.032c-0.815-0.689-1.223-1.67-1.223-2.941
		c0-1.26,0.386-2.258,1.158-2.994c0.772-0.736,1.832-1.104,3.177-1.104c1.241,0,2.174,0.313,2.799,0.94s0.938,1.53,0.938,2.707
		V58.217z M83.193,56.783c-0.014-0.513-0.141-0.897-0.38-1.155c-0.24-0.259-0.614-0.388-1.121-0.388
		c-0.471,0-0.858,0.123-1.162,0.367c-0.304,0.245-0.474,0.636-0.51,1.176H83.193z"/>
	<path fill="#E1DADA" d="M94.771,61.58h-2.453v-0.796c-0.421,0.345-0.814,0.598-1.181,0.761c-0.367,0.163-0.79,0.245-1.269,0.245
		c-0.928,0-1.669-0.357-2.226-1.073s-0.834-1.681-0.834-2.896c0-0.646,0.094-1.221,0.282-1.721c0.188-0.501,0.444-0.931,0.77-1.288
		c0.308-0.34,0.681-0.604,1.12-0.791c0.438-0.188,0.877-0.282,1.316-0.282c0.457,0,0.831,0.049,1.124,0.146
		c0.292,0.098,0.591,0.221,0.899,0.37v-3.247h2.453V61.58z M92.318,59.479V55.73c-0.172-0.073-0.353-0.126-0.542-0.157
		s-0.364-0.047-0.521-0.047c-0.642,0-1.124,0.2-1.444,0.602s-0.481,0.958-0.481,1.671c0,0.748,0.129,1.292,0.386,1.63
		c0.258,0.337,0.671,0.507,1.241,0.507c0.222,0,0.457-0.042,0.705-0.126S92.128,59.615,92.318,59.479z"/>
	<path fill="#E1DADA" d="M110.072,58.399c0,0.997-0.422,1.807-1.267,2.43c-0.845,0.623-1.993,0.934-3.442,0.934
		c-0.838,0-1.568-0.073-2.191-0.221c-0.623-0.147-1.206-0.333-1.75-0.561v-2.426h0.286c0.539,0.431,1.142,0.761,1.811,0.993
		c0.667,0.229,1.31,0.346,1.926,0.346c0.158,0,0.367-0.014,0.625-0.041c0.258-0.026,0.469-0.072,0.632-0.136
		c0.199-0.081,0.364-0.184,0.493-0.305c0.129-0.124,0.194-0.305,0.194-0.544c0-0.223-0.094-0.414-0.282-0.575
		c-0.188-0.161-0.464-0.284-0.826-0.37c-0.38-0.091-0.782-0.175-1.206-0.255c-0.423-0.079-0.821-0.18-1.192-0.302
		c-0.851-0.276-1.464-0.651-1.838-1.125c-0.373-0.474-0.561-1.061-0.561-1.764c0-0.941,0.422-1.71,1.267-2.306
		c0.845-0.596,1.931-0.894,3.258-0.894c0.666,0,1.324,0.064,1.974,0.193c0.65,0.13,1.213,0.292,1.688,0.486v2.33h-0.278
		c-0.408-0.326-0.908-0.6-1.498-0.819c-0.592-0.219-1.195-0.329-1.811-0.329c-0.217,0-0.434,0.015-0.648,0.044
		c-0.215,0.029-0.423,0.086-0.622,0.167c-0.177,0.067-0.328,0.171-0.455,0.309c-0.127,0.139-0.19,0.296-0.19,0.473
		c0,0.268,0.102,0.473,0.306,0.614c0.204,0.144,0.589,0.273,1.155,0.392c0.372,0.077,0.728,0.151,1.07,0.225
		c0.342,0.072,0.709,0.171,1.104,0.299c0.775,0.253,1.347,0.599,1.716,1.036C109.888,57.135,110.072,57.702,110.072,58.399z"/>
	<path fill="#E1DADA" d="M119.238,58.217h-5.599c0.036,0.598,0.264,1.055,0.683,1.371c0.418,0.318,1.036,0.478,1.851,0.478
		c0.516,0,1.017-0.094,1.501-0.279c0.484-0.187,0.868-0.385,1.148-0.599h0.271v1.965c-0.552,0.222-1.073,0.383-1.563,0.481
		c-0.489,0.1-1.031,0.149-1.624,0.149c-1.531,0-2.704-0.344-3.52-1.032c-0.815-0.689-1.223-1.67-1.223-2.941
		c0-1.26,0.387-2.258,1.159-2.994c0.772-0.736,1.831-1.104,3.176-1.104c1.242,0,2.174,0.313,2.799,0.94
		c0.625,0.627,0.938,1.53,0.938,2.707V58.217z M116.806,56.783c-0.014-0.513-0.141-0.897-0.38-1.155
		c-0.24-0.259-0.614-0.388-1.121-0.388c-0.471,0-0.858,0.123-1.162,0.367c-0.304,0.245-0.473,0.636-0.509,1.176H116.806z"/>
	<path fill="#E1DADA" d="M124.938,61.783c-0.666,0-1.274-0.079-1.824-0.238c-0.551-0.157-1.03-0.402-1.438-0.733
		c-0.403-0.33-0.715-0.746-0.938-1.25c-0.222-0.502-0.333-1.092-0.333-1.767c0-0.711,0.119-1.325,0.357-1.841
		c0.237-0.517,0.569-0.944,0.995-1.285c0.413-0.32,0.888-0.556,1.427-0.706c0.539-0.148,1.099-0.224,1.678-0.224
		c0.521,0,1.001,0.056,1.44,0.169c0.44,0.114,0.85,0.262,1.23,0.442v2.085h-0.346c-0.095-0.081-0.209-0.176-0.343-0.284
		c-0.133-0.108-0.297-0.216-0.492-0.32c-0.186-0.099-0.389-0.182-0.61-0.247c-0.222-0.066-0.479-0.1-0.773-0.1
		c-0.651,0-1.152,0.208-1.503,0.622c-0.351,0.415-0.526,0.978-0.526,1.688c0,0.733,0.18,1.292,0.54,1.672
		c0.359,0.381,0.87,0.571,1.53,0.571c0.308,0,0.585-0.036,0.831-0.105c0.247-0.07,0.451-0.154,0.614-0.248
		c0.153-0.091,0.29-0.187,0.407-0.286c0.117-0.1,0.226-0.197,0.325-0.292h0.346v2.085c-0.385,0.183-0.787,0.325-1.206,0.433
		C125.909,61.73,125.446,61.783,124.938,61.783z"/>
	<path fill="#E1DADA" d="M136.754,61.58h-2.453v-0.843c-0.453,0.344-0.867,0.606-1.242,0.785c-0.375,0.179-0.823,0.268-1.343,0.268
		c-0.841,0-1.49-0.242-1.944-0.727c-0.455-0.485-0.682-1.2-0.682-2.147V53.95h2.453v3.784c0,0.384,0.013,0.705,0.038,0.961
		c0.024,0.257,0.083,0.468,0.173,0.636c0.086,0.167,0.216,0.29,0.391,0.366c0.174,0.077,0.418,0.116,0.73,0.116
		c0.208,0,0.44-0.039,0.693-0.116c0.253-0.076,0.498-0.19,0.734-0.339V53.95h2.453V61.58z"/>
	<path fill="#E1DADA" d="M144.596,56.28h-0.218c-0.104-0.037-0.271-0.064-0.501-0.082s-0.423-0.027-0.577-0.027
		c-0.348,0-0.654,0.023-0.922,0.068c-0.267,0.045-0.554,0.122-0.86,0.23v5.11h-2.453v-7.63h2.453v1.12
		c0.537-0.462,1.005-0.77,1.403-0.921c0.397-0.151,0.764-0.227,1.098-0.227c0.086,0,0.184,0.002,0.292,0.006
		c0.108,0.005,0.203,0.012,0.285,0.021V56.28z"/>
	<path fill="#E1DADA" d="M148.502,52.863h-2.589v-1.855h2.589V52.863z M148.435,61.58h-2.453v-7.63h2.453V61.58z"/>
	<path fill="#E1DADA" d="M155.615,61.513c-0.263,0.068-0.541,0.12-0.836,0.159c-0.294,0.038-0.654,0.058-1.08,0.058
		c-0.951,0-1.659-0.192-2.123-0.577c-0.464-0.386-0.696-1.045-0.696-1.978v-3.567h-1.005V53.95h1.005v-2.182h2.452v2.182h2.283
		v1.657h-2.283v2.708c0,0.269,0.003,0.502,0.007,0.701c0.005,0.199,0.041,0.378,0.108,0.537c0.063,0.159,0.176,0.285,0.336,0.379
		c0.16,0.093,0.394,0.139,0.701,0.139c0.127,0,0.292-0.027,0.497-0.082c0.206-0.054,0.35-0.104,0.431-0.149h0.203V61.513z"/>
	<path fill="#E1DADA" d="M160.517,58.882l1.742-4.932h2.516l-4.24,10.429h-2.654l1.212-2.857l-2.968-7.571h2.569L160.517,58.882z"/>
	<path fill="#E1DADA" d="M180.373,61.58h-2.694l-0.704-2.046h-3.744l-0.705,2.046h-2.629l3.737-10.118h3.003L180.373,61.58z
		 M176.347,57.68l-1.245-3.624l-1.243,3.624H176.347z"/>
	<path fill="#E1DADA" d="M189.355,61.58h-2.452v-3.785c0-0.308-0.017-0.615-0.048-0.92c-0.031-0.307-0.086-0.531-0.163-0.677
		c-0.091-0.167-0.223-0.289-0.397-0.367c-0.174-0.077-0.418-0.114-0.73-0.114c-0.222,0-0.447,0.035-0.676,0.108
		c-0.229,0.072-0.478,0.188-0.745,0.346v5.409h-2.452v-7.63h2.452v0.842c0.436-0.34,0.853-0.601,1.253-0.781
		s0.845-0.271,1.334-0.271c0.822,0,1.466,0.24,1.931,0.72c0.463,0.479,0.694,1.198,0.694,2.154V61.58z"/>
	<path fill="#E1DADA" d="M196.225,60.771c-0.132,0.1-0.295,0.22-0.489,0.359c-0.194,0.141-0.378,0.251-0.551,0.333
		c-0.239,0.108-0.489,0.188-0.746,0.241c-0.26,0.053-0.542,0.078-0.851,0.078c-0.724,0-1.331-0.224-1.82-0.673
		c-0.489-0.447-0.734-1.021-0.734-1.719c0-0.557,0.125-1.012,0.373-1.365c0.25-0.354,0.604-0.632,1.061-0.836
		c0.453-0.204,1.015-0.35,1.685-0.435c0.672-0.086,1.366-0.149,2.087-0.19v-0.041c0-0.421-0.173-0.712-0.517-0.873
		c-0.344-0.16-0.852-0.241-1.521-0.241c-0.404,0-0.834,0.071-1.291,0.215c-0.458,0.142-0.786,0.251-0.986,0.329h-0.224v-1.841
		c0.259-0.069,0.679-0.148,1.261-0.242c0.582-0.093,1.165-0.139,1.75-0.139c1.391,0,2.395,0.213,3.013,0.642
		c0.619,0.428,0.928,1.1,0.928,2.015v5.191h-2.426V60.771z M196.225,59.584v-1.585c-0.33,0.027-0.688,0.064-1.073,0.111
		c-0.385,0.048-0.678,0.104-0.876,0.166c-0.245,0.077-0.432,0.189-0.562,0.336c-0.129,0.146-0.193,0.34-0.193,0.579
		c0,0.157,0.014,0.286,0.041,0.386c0.026,0.099,0.095,0.194,0.203,0.284c0.104,0.091,0.229,0.156,0.375,0.199
		c0.144,0.043,0.37,0.065,0.679,0.065c0.245,0,0.492-0.05,0.743-0.148C195.813,59.877,196.034,59.746,196.225,59.584z"/>
	<path fill="#E1DADA" d="M203.353,61.58h-2.453V51.008h2.453V61.58z"/>
	<path fill="#E1DADA" d="M209.097,58.882l1.741-4.932h2.517l-4.24,10.429h-2.655l1.213-2.857l-2.968-7.571h2.569L209.097,58.882z"/>
	<path fill="#E1DADA" d="M221.344,59.161c0,0.788-0.354,1.424-1.061,1.905c-0.706,0.483-1.674,0.724-2.9,0.724
		c-0.68,0-1.296-0.063-1.849-0.19s-0.997-0.267-1.331-0.42v-2.012h0.224c0.122,0.086,0.263,0.18,0.424,0.281
		c0.161,0.103,0.39,0.212,0.684,0.329c0.253,0.104,0.541,0.194,0.862,0.269c0.322,0.075,0.666,0.112,1.033,0.112
		c0.479,0,0.835-0.053,1.067-0.159c0.229-0.106,0.346-0.265,0.346-0.473c0-0.186-0.067-0.32-0.204-0.404
		c-0.136-0.084-0.394-0.164-0.774-0.241c-0.181-0.04-0.426-0.085-0.736-0.132c-0.311-0.048-0.593-0.105-0.847-0.174
		c-0.692-0.181-1.207-0.463-1.542-0.846c-0.336-0.382-0.503-0.86-0.503-1.431c0-0.733,0.348-1.343,1.043-1.83s1.646-0.73,2.85-0.73
		c0.571,0,1.118,0.057,1.642,0.173c0.523,0.115,0.932,0.238,1.227,0.37v1.93h-0.211c-0.362-0.249-0.775-0.451-1.239-0.608
		c-0.465-0.155-0.935-0.234-1.41-0.234c-0.395,0-0.726,0.055-0.995,0.163c-0.271,0.109-0.405,0.263-0.405,0.462
		c0,0.182,0.061,0.32,0.185,0.414c0.121,0.097,0.409,0.19,0.862,0.287c0.249,0.049,0.518,0.098,0.805,0.145
		c0.287,0.049,0.577,0.108,0.866,0.182c0.644,0.167,1.119,0.431,1.427,0.791C221.189,58.172,221.344,58.621,221.344,59.161z"/>
	<path fill="#E1DADA" d="M230.482,58.217h-5.599c0.036,0.598,0.264,1.055,0.683,1.371c0.419,0.318,1.036,0.478,1.852,0.478
		c0.516,0,1.017-0.094,1.502-0.279c0.484-0.187,0.867-0.385,1.148-0.599h0.271v1.965c-0.553,0.222-1.074,0.383-1.563,0.481
		c-0.489,0.1-1.029,0.149-1.623,0.149c-1.531,0-2.704-0.344-3.52-1.032c-0.815-0.689-1.224-1.67-1.224-2.941
		c0-1.26,0.386-2.258,1.158-2.994s1.832-1.104,3.177-1.104c1.241,0,2.175,0.313,2.8,0.94s0.938,1.53,0.938,2.707V58.217z
		 M228.05,56.783c-0.014-0.513-0.14-0.897-0.38-1.155c-0.241-0.259-0.614-0.388-1.122-0.388c-0.471,0-0.858,0.123-1.161,0.367
		c-0.304,0.245-0.474,0.636-0.509,1.176H228.05z"/>
	<path fill="#E1DADA" d="M237.739,56.28h-0.217c-0.104-0.037-0.271-0.064-0.502-0.082s-0.423-0.027-0.577-0.027
		c-0.348,0-0.655,0.023-0.922,0.068s-0.554,0.122-0.86,0.23v5.11h-2.453v-7.63h2.453v1.12c0.538-0.462,1.006-0.77,1.403-0.921
		s0.764-0.227,1.099-0.227c0.086,0,0.183,0.002,0.292,0.006c0.107,0.005,0.202,0.012,0.284,0.021V56.28z"/>
	<path fill="#E1DADA" d="M248.827,52.801h-0.183c-0.108-0.031-0.25-0.067-0.423-0.108c-0.174-0.041-0.361-0.062-0.56-0.062
		c-0.479,0-0.803,0.087-0.972,0.259c-0.17,0.172-0.255,0.505-0.255,0.999v0.062h1.882v1.657h-1.8v5.973h-2.452v-5.973h-1.048V53.95
		h1.048v-0.211c0-0.934,0.247-1.633,0.743-2.1s1.247-0.7,2.253-0.7c0.362,0,0.69,0.013,0.984,0.038
		c0.295,0.024,0.555,0.057,0.781,0.098V52.801z"/>
	<path fill="#E1DADA" d="M257.559,57.768c0,1.255-0.365,2.244-1.097,2.967c-0.732,0.722-1.759,1.083-3.081,1.083
		c-1.323,0-2.35-0.361-3.081-1.083c-0.732-0.723-1.098-1.712-1.098-2.967c0-1.263,0.367-2.256,1.104-2.976
		c0.736-0.721,1.762-1.08,3.075-1.08c1.332,0,2.36,0.362,3.088,1.087C257.195,55.523,257.559,56.513,257.559,57.768z M254.55,59.623
		c0.157-0.194,0.276-0.43,0.356-0.704c0.079-0.273,0.118-0.653,0.118-1.137c0-0.449-0.04-0.825-0.121-1.129
		c-0.082-0.304-0.196-0.546-0.341-0.727c-0.145-0.187-0.319-0.316-0.523-0.395c-0.203-0.077-0.423-0.114-0.658-0.114
		c-0.236,0-0.445,0.031-0.629,0.094c-0.184,0.063-0.358,0.19-0.527,0.381c-0.148,0.178-0.268,0.419-0.356,0.728
		c-0.088,0.308-0.133,0.694-0.133,1.162c0,0.416,0.039,0.777,0.116,1.083s0.19,0.552,0.34,0.737c0.146,0.176,0.317,0.306,0.52,0.387
		c0.202,0.082,0.432,0.123,0.689,0.123c0.222,0,0.435-0.038,0.636-0.112C254.238,59.925,254.408,59.8,254.55,59.623z"/>
	<path fill="#E1DADA" d="M264.843,56.28h-0.217c-0.104-0.037-0.271-0.064-0.501-0.082c-0.231-0.018-0.424-0.027-0.577-0.027
		c-0.349,0-0.655,0.023-0.922,0.068s-0.555,0.122-0.861,0.23v5.11h-2.452v-7.63h2.452v1.12c0.538-0.462,1.005-0.77,1.403-0.921
		c0.397-0.151,0.765-0.227,1.099-0.227c0.086,0,0.184,0.002,0.292,0.006c0.107,0.005,0.203,0.012,0.284,0.021V56.28z"/>
	<path fill="#E1DADA" d="M20.629,78.277h-2.694l-0.705-2.046h-3.744l-0.705,2.046h-2.629l3.737-10.117h3.003L20.629,78.277z
		 M16.603,74.377l-1.245-3.624l-1.245,3.624H16.603z"/>
	<path fill="#E1DADA" d="M30.183,75.098c0,0.996-0.422,1.807-1.267,2.43c-0.845,0.622-1.992,0.933-3.441,0.933
		c-0.838,0-1.569-0.073-2.192-0.22c-0.622-0.147-1.206-0.334-1.749-0.561v-2.427h0.285c0.539,0.431,1.143,0.762,1.811,0.993
		c0.668,0.23,1.31,0.347,1.926,0.347c0.158,0,0.367-0.014,0.625-0.041s0.469-0.072,0.632-0.136c0.199-0.082,0.364-0.185,0.492-0.306
		c0.13-0.123,0.194-0.304,0.194-0.543c0-0.223-0.094-0.414-0.282-0.575s-0.463-0.284-0.826-0.37
		c-0.38-0.091-0.782-0.176-1.206-0.255c-0.423-0.08-0.821-0.18-1.192-0.303c-0.852-0.275-1.464-0.65-1.838-1.124
		c-0.374-0.474-0.561-1.062-0.561-1.764c0-0.942,0.422-1.71,1.267-2.306c0.845-0.597,1.931-0.895,3.258-0.895
		c0.666,0,1.324,0.065,1.973,0.193c0.65,0.13,1.213,0.292,1.689,0.486v2.33h-0.279c-0.408-0.326-0.907-0.599-1.498-0.818
		c-0.592-0.22-1.195-0.329-1.811-0.329c-0.218,0-0.434,0.015-0.649,0.044c-0.215,0.029-0.423,0.085-0.622,0.167
		c-0.177,0.066-0.329,0.17-0.456,0.309c-0.127,0.138-0.19,0.296-0.19,0.473c0,0.268,0.102,0.472,0.306,0.614
		c0.204,0.144,0.589,0.272,1.155,0.391c0.372,0.077,0.728,0.151,1.071,0.225c0.342,0.072,0.709,0.172,1.104,0.3
		c0.775,0.253,1.347,0.599,1.715,1.035C29.998,73.833,30.183,74.4,30.183,75.098z"/>
	<path fill="#E1DADA" d="M40.32,71.354c0,0.452-0.079,0.895-0.238,1.327c-0.158,0.433-0.385,0.797-0.679,1.092
		c-0.403,0.398-0.853,0.699-1.349,0.903c-0.496,0.203-1.113,0.305-1.851,0.305h-1.624v3.296H31.97V68.16h4.294
		c0.644,0,1.186,0.057,1.627,0.167c0.442,0.11,0.833,0.277,1.172,0.5c0.408,0.267,0.719,0.608,0.934,1.025
		C40.212,70.27,40.32,70.769,40.32,71.354z M37.623,71.412c0-0.284-0.077-0.53-0.231-0.736c-0.154-0.205-0.333-0.349-0.537-0.43
		c-0.272-0.108-0.537-0.168-0.795-0.18c-0.258-0.012-0.603-0.017-1.033-0.017h-0.448v3.023h0.748c0.443,0,0.81-0.027,1.097-0.082
		c0.288-0.055,0.529-0.162,0.724-0.325c0.167-0.145,0.289-0.317,0.363-0.519C37.585,71.946,37.623,71.701,37.623,71.412z"/>
	<path fill="#E1DADA" d="M44.662,78.277h-2.541v-2.671h2.541V78.277z"/>
	<path fill="#E1DADA" d="M56.396,78.277h-2.514l-4.294-6.944v6.944h-2.392V68.16h3.119l3.689,5.796V68.16h2.392V78.277z"/>
	<path fill="#E1DADA" d="M66.295,78.277h-7.318V68.16h7.318v1.956h-4.722v1.747h4.382v1.957h-4.382v2.5h4.722V78.277z"/>
	<path fill="#E1DADA" d="M76.399,70.116h-3.16v8.161H70.63v-8.161h-3.16V68.16h8.928V70.116z"/>
	<path fill="#E1DADA" d="M96.687,68.16l-2.725,10.117H91.07l-1.81-6.591l-1.769,6.591h-2.886L81.882,68.16h2.723l1.552,6.965
		l1.867-6.965h2.603l1.771,6.965l1.629-6.965H96.687z"/>
	<path fill="#E1DADA" d="M105.805,74.915h-5.599c0.036,0.598,0.264,1.055,0.683,1.371c0.419,0.317,1.037,0.477,1.852,0.477
		c0.516,0,1.017-0.093,1.501-0.279c0.484-0.186,0.868-0.385,1.148-0.598h0.271v1.964c-0.552,0.222-1.073,0.383-1.563,0.482
		c-0.489,0.099-1.031,0.149-1.624,0.149c-1.531,0-2.704-0.344-3.52-1.033c-0.815-0.688-1.223-1.669-1.223-2.941
		c0-1.26,0.386-2.258,1.158-2.993c0.772-0.736,1.832-1.104,3.177-1.104c1.241,0,2.174,0.313,2.799,0.941
		c0.625,0.627,0.938,1.53,0.938,2.707V74.915z M103.373,73.48c-0.014-0.512-0.141-0.896-0.38-1.155
		c-0.24-0.258-0.614-0.388-1.121-0.388c-0.471,0-0.858,0.123-1.162,0.368c-0.304,0.244-0.474,0.636-0.51,1.175H103.373z"/>
	<path fill="#E1DADA" d="M115.494,74.356c0,1.201-0.331,2.18-0.994,2.936c-0.663,0.757-1.49,1.135-2.481,1.135
		c-0.425,0-0.798-0.045-1.119-0.136c-0.322-0.091-0.627-0.222-0.917-0.395l-0.103,0.381h-2.35V67.705h2.453v3.737
		c0.375-0.299,0.759-0.542,1.15-0.728c0.391-0.186,0.843-0.278,1.354-0.278c0.963,0,1.705,0.348,2.226,1.043
		C115.234,72.175,115.494,73.134,115.494,74.356z M112.974,74.407c0-0.678-0.116-1.199-0.346-1.566
		c-0.23-0.366-0.641-0.55-1.233-0.55c-0.23,0-0.468,0.035-0.712,0.105s-0.477,0.17-0.698,0.302v3.826
		c0.176,0.063,0.343,0.106,0.502,0.13c0.158,0.021,0.348,0.033,0.569,0.033c0.647,0,1.128-0.19,1.444-0.569
		C112.815,75.738,112.974,75.168,112.974,74.407z"/>
	<path fill="#E1DADA" d="M123.893,75.858c0,0.788-0.354,1.424-1.06,1.905c-0.707,0.483-1.674,0.724-2.901,0.724
		c-0.679,0-1.295-0.063-1.848-0.19c-0.552-0.126-0.997-0.267-1.332-0.42v-2.011h0.224c0.122,0.085,0.264,0.18,0.424,0.281
		c0.161,0.102,0.389,0.212,0.683,0.329c0.253,0.104,0.542,0.194,0.863,0.269c0.322,0.075,0.666,0.111,1.033,0.111
		c0.48,0,0.836-0.052,1.067-0.158s0.347-0.265,0.347-0.473c0-0.187-0.068-0.321-0.204-0.404c-0.136-0.084-0.394-0.164-0.774-0.242
		c-0.181-0.039-0.427-0.084-0.737-0.132c-0.311-0.048-0.593-0.105-0.846-0.173c-0.693-0.181-1.208-0.463-1.542-0.846
		s-0.503-0.86-0.503-1.432c0-0.733,0.348-1.343,1.043-1.83c0.695-0.487,1.645-0.73,2.85-0.73c0.571,0,1.118,0.058,1.641,0.174
		c0.523,0.114,0.932,0.238,1.227,0.37v1.93h-0.211c-0.362-0.249-0.775-0.452-1.239-0.608c-0.465-0.156-0.935-0.234-1.41-0.234
		c-0.394,0-0.726,0.055-0.995,0.163c-0.27,0.108-0.405,0.262-0.405,0.462c0,0.181,0.061,0.319,0.184,0.414
		c0.122,0.096,0.41,0.19,0.863,0.286c0.25,0.049,0.518,0.099,0.805,0.146c0.288,0.048,0.577,0.107,0.867,0.181
		c0.644,0.167,1.119,0.431,1.427,0.791C123.738,74.87,123.893,75.319,123.893,75.858z"/>
	<path fill="#E1DADA" d="M128.037,69.561h-2.589v-1.855h2.589V69.561z M127.969,78.277h-2.453v-7.63h2.453V78.277z"/>
	<path fill="#E1DADA" d="M135.151,78.211c-0.263,0.067-0.542,0.12-0.836,0.158c-0.294,0.039-0.654,0.058-1.08,0.058
		c-0.951,0-1.659-0.192-2.124-0.577c-0.464-0.386-0.696-1.044-0.696-1.978v-3.566h-1.005v-1.658h1.005v-2.182h2.453v2.182h2.283
		v1.658h-2.283v2.707c0,0.269,0.002,0.502,0.007,0.701c0.005,0.2,0.041,0.379,0.108,0.538c0.063,0.158,0.175,0.285,0.335,0.378
		c0.161,0.093,0.394,0.139,0.701,0.139c0.126,0,0.292-0.026,0.498-0.081c0.205-0.055,0.349-0.104,0.43-0.149h0.203V78.211z"/>
	<path fill="#E1DADA" d="M144.126,74.915h-5.599c0.036,0.598,0.265,1.055,0.683,1.371c0.42,0.317,1.037,0.477,1.853,0.477
		c0.516,0,1.017-0.093,1.501-0.279c0.484-0.186,0.868-0.385,1.148-0.598h0.271v1.964c-0.552,0.222-1.073,0.383-1.563,0.482
		c-0.489,0.099-1.03,0.149-1.624,0.149c-1.53,0-2.704-0.344-3.52-1.033c-0.815-0.688-1.223-1.669-1.223-2.941
		c0-1.26,0.386-2.258,1.158-2.993c0.772-0.736,1.831-1.104,3.177-1.104c1.241,0,2.174,0.313,2.799,0.941
		c0.625,0.627,0.938,1.53,0.938,2.707V74.915z M141.694,73.48c-0.014-0.512-0.141-0.896-0.381-1.155
		c-0.24-0.258-0.613-0.388-1.121-0.388c-0.471,0-0.858,0.123-1.162,0.368c-0.304,0.244-0.474,0.636-0.51,1.175H141.694z"/>
	<path fill="#E1DADA" d="M152.483,75.858c0,0.788-0.354,1.424-1.06,1.905c-0.707,0.483-1.674,0.724-2.902,0.724
		c-0.679,0-1.295-0.063-1.847-0.19c-0.553-0.126-0.997-0.267-1.332-0.42v-2.011h0.224c0.123,0.085,0.265,0.18,0.425,0.281
		c0.161,0.102,0.389,0.212,0.684,0.329c0.253,0.104,0.54,0.194,0.862,0.269c0.322,0.075,0.666,0.111,1.033,0.111
		c0.479,0,0.836-0.052,1.065-0.158c0.232-0.106,0.348-0.265,0.348-0.473c0-0.187-0.068-0.321-0.204-0.404
		c-0.136-0.084-0.394-0.164-0.774-0.242c-0.181-0.039-0.427-0.084-0.737-0.132s-0.593-0.105-0.846-0.173
		c-0.693-0.181-1.207-0.463-1.543-0.846c-0.335-0.383-0.502-0.86-0.502-1.432c0-0.733,0.348-1.343,1.043-1.83s1.646-0.73,2.851-0.73
		c0.57,0,1.117,0.058,1.64,0.174c0.524,0.114,0.933,0.238,1.227,0.37v1.93h-0.21c-0.363-0.249-0.776-0.452-1.24-0.608
		s-0.935-0.234-1.41-0.234c-0.394,0-0.726,0.055-0.995,0.163s-0.404,0.262-0.404,0.462c0,0.181,0.062,0.319,0.183,0.414
		c0.124,0.096,0.411,0.19,0.863,0.286c0.249,0.049,0.518,0.099,0.806,0.146c0.287,0.048,0.577,0.107,0.866,0.181
		c0.643,0.167,1.118,0.431,1.427,0.791S152.483,75.319,152.483,75.858z"/>
</g>
</svg>
