<?xml version="1.0" encoding="utf-8"?>
<!-- Generator: Adobe Illustrator 13.0.0, SVG Export Plug-In . SVG Version: 6.00 Build 14948)  -->
<!DOCTYPE svg PUBLIC "-//W3C//DTD SVG 1.1//EN" "http://www.w3.org/Graphics/SVG/1.1/DTD/svg11.dtd">
<svg version="1.1" id="LinkedIn" xmlns="http://www.w3.org/2000/svg" xmlns:xlink="http://www.w3.org/1999/xlink" x="0px" y="0px"
	 width="90px" height="90px" viewBox="0 0 90 90" enable-background="new 0 0 90 90" xml:space="preserve">
<g>
	<path fill-rule="evenodd" clip-rule="evenodd" fill="#FFFFFF" d="M28.576,73.754V34.951H15.68v38.803H28.576L28.576,73.754z
		 M22.128,29.656c4.497,0,7.297-2.983,7.297-6.706c-0.085-3.806-2.8-6.704-7.21-6.704c-4.414,0-7.297,2.897-7.297,6.704
		c0,3.723,2.799,6.706,7.127,6.706H22.128L22.128,29.656z"/>
	<path fill-rule="evenodd" clip-rule="evenodd" fill="#FFFFFF" d="M35.713,73.754h12.898V52.086c0-1.16,0.082-2.318,0.424-3.148
		c0.932-2.316,3.053-4.717,6.617-4.717c4.668,0,6.535,3.561,6.535,8.774v20.76h12.895v-22.25c0-11.917-6.361-17.463-14.848-17.463
		c-6.957,0-10.012,3.89-11.709,6.538h0.086v-5.627H35.713C35.882,38.592,35.713,73.754,35.713,73.754L35.713,73.754z"/>
</g>
</svg>
