<?xml version="1.0" encoding="utf-8"?>
<!-- Generator: Adobe Illustrator 13.0.0, SVG Export Plug-In . SVG Version: 6.00 Build 14948)  -->
<!DOCTYPE svg PUBLIC "-//W3C//DTD SVG 1.1//EN" "http://www.w3.org/Graphics/SVG/1.1/DTD/svg11.dtd">
<svg version="1.1" id="Layer_1" xmlns="http://www.w3.org/2000/svg" xmlns:xlink="http://www.w3.org/1999/xlink" x="0px" y="0px"
	 width="134px" height="134px" viewBox="0 0 134 134" enable-background="new 0 0 134 134" xml:space="preserve">
<g>
	<g>
		<path fill="#FFFFFF" d="M99.133,57.522c-0.623-0.353-1.343-0.587-2.159-0.705c-0.813-0.119-1.669,0.099-2.563,0.099h0.013v10.042
			h0.118c1.192,0,2.206,0.162,3.039-0.064c0.833-0.227,1.513-0.561,2.04-1.006c0.524-0.442,0.912-0.985,1.157-1.628
			c0.245-0.643,0.368-1.664,0.368-2.515c0-1.031-0.181-2.133-0.539-2.758C100.246,58.364,99.755,57.875,99.133,57.522z
			 M67.001,12.662L12.662,67l54.339,54.337L121.338,67L67.001,12.662z M61.078,84.177h-5.587V57.568l-5.771,26.654h-5.862
			l-6.091-26.608v26.562h-5.45V50.745h9.251l5.587,25.096l5.221-25.096h8.702V84.177z M77.839,84.177h-6.961l-8.381-33.386h6.687
			l5.267,26.104l5.404-26.104h6.687L77.839,84.177z M104.408,70.503c-2.247,1.91-5.578,2.59-9.998,2.59h0.013V84.11H87.95V50.753
			h6.17c1.789,0,3.508-0.116,5.157,0.2c1.647,0.317,3.101,0.887,4.354,1.71c1.254,0.824,2.259,1.936,3.012,3.339
			c0.754,1.402,1.133,3.463,1.133,5.636C107.776,65.456,106.653,68.594,104.408,70.503z"/>
	</g>
</g>
</svg>
