<?xml version="1.0" encoding="UTF-8" standalone="no"?>
<svg
   xmlns:dc="http://purl.org/dc/elements/1.1/"
   xmlns:cc="http://creativecommons.org/ns#"
   xmlns:rdf="http://www.w3.org/1999/02/22-rdf-syntax-ns#"
   xmlns:svg="http://www.w3.org/2000/svg"
   xmlns="http://www.w3.org/2000/svg"
   xmlns:inkscape="http://www.inkscape.org/namespaces/inkscape"
   version="1.1"
   width="210.46249"
   height="37.8125"
   id="svg2"
   xml:space="preserve"><metadata
     id="metadata8"><rdf:RDF><cc:Work
         rdf:about=""><dc:format>image/svg+xml</dc:format><dc:type
           rdf:resource="http://purl.org/dc/dcmitype/StillImage" /></cc:Work></rdf:RDF></metadata><defs
     id="defs6"><clipPath
       id="clipPath18"><path
         d="M 0,302.527 0,0 l 1603.75,0 0,302.527 -1603.75,0 z"
         inkscape:connector-curvature="0"
         id="path20" /></clipPath></defs><g
     transform="matrix(1.25,0,0,-1.25,0,37.8125)"
     id="g10"><g
       transform="scale(0.1,0.1)"
       id="g12"><g
         id="g14"><g
           clip-path="url(#clipPath18)"
           id="g16"><path
             d="m 1556.27,92.6484 -70.86,-44.8242 c -5.85,-3.7578 -10.63,-0.7226 -10.63,6.711 l 0,89.6248 c 0,7.469 4.78,10.473 10.63,6.805 l 70.86,-44.848 c 5.84,-3.742 5.84,-9.7576 0,-13.4686 z m -47.52,106.0666 c -52.47,0 -94.99,-44.457 -94.99,-99.3478 0,-54.875 42.52,-99.3672 94.99,-99.3672 52.46,0 95,44.4922 95,99.3672 0,54.8908 -42.54,99.3478 -95,99.3478"
             inkscape:connector-curvature="0"
             id="path22"
             style="fill:#ffffff;fill-opacity:1;fill-rule:nonzero;stroke:none" /><path
             d="m 81.4102,248.492 c -23.2579,0 -38.1368,-12.445 -48.6797,-28.004 l 0,24.899 -32.7305,0 0,-194.6214 32.7305,0 0,68.4574 c 10.0078,-13.864 24.8789,-26.3168 48.6797,-26.3168 33.8048,0 66.2498,28.0118 66.2498,77.5158 l 0,0.562 c 0,49.797 -32.722,77.508 -66.2498,77.508 m 32.9878,-78.07 c 0,-29.414 -18.3941,-47.809 -40.8355,-47.809 -22.1758,0 -41.6445,19.235 -41.6445,47.809 l 0,0.562 c 0,28.575 19.4687,47.809 41.6445,47.809 22.1719,0 40.8355,-18.961 40.8355,-47.809 l 0,-0.562 z m 577.567,-62.313 c 10.617,7.606 21.539,14.637 32.726,21.149 l 0,173.269 -32.726,0 0,-194.418 z m 102.715,54.098 c 15.734,5.852 31.8,10.883 48.129,15.191 -5.747,2.747 -11.871,4.957 -17.786,6.887 -16.765,5.656 -32.183,10.172 -32.183,21.207 l 0,0.57 c 0,8.489 7.301,14.719 20.012,14.719 11.906,0 26.5,-5.386 40.296,-14.14 l 12.977,24.316 c -15.141,10.473 -34.617,16.973 -52.465,16.973 -28.39,0 -50.836,-17.258 -50.836,-45.535 l 0,-0.579 c 0,-22.836 15.047,-33.191 31.856,-39.609 m 293.19,60.836 c -11.09,13.852 -25.96,25.449 -50.03,25.449 -28.1,0 -54.965,-18.617 -62.656,-50.996 11.781,0.641 23.578,0.992 35.386,1.137 6.73,13.082 20.15,21.008 35.93,21.008 16.56,0 31.21,-8.895 37.96,-23.129 12.1,-0.805 24.15,-1.828 36.13,-3.035 l 0,51.91 -32.72,0 0,-22.344 z m 151.16,25.449 c -22.17,0 -35.42,-12.16 -44.62,-26.015 l 0,80.05 -32.72,0 0,-113.894 c 11.04,-1.504 21.99,-3.149 32.85,-4.918 1.25,21.14 14.07,33.664 32.05,33.664 19.48,0 30.57,-13.289 30.57,-36.492 l 0,-8.871 c 11.09,-2.336 22,-4.754 32.72,-7.254 l 0,26.593 c 0,34.508 -18.67,57.137 -50.85,57.137 m -335.596,19.809 35.16,0 0,32.527 -35.16,0 0,-32.527 z m 465.396,-22.914 0,41.015 -32.72,0 0,-41.015 -18.12,0 0,-29.422 18.12,0 0,-62.719 c 11.23,-2.976 22.15,-6 32.72,-9.031 l 0,71.75 38.41,0 0,29.422 -38.41,0 z M 904.797,190.301 c 10.836,1.672 21.75,3.058 32.711,4.199 l 0,50.887 -32.711,0 0,-55.086 z M 352.637,161.09 c 0,-23.203 -13.25,-36.781 -32.176,-36.781 -19.477,0 -30.566,13.011 -30.566,36.203 l 0,84.875 -32.715,0 0,-95.055 c 0,-34.789 18.652,-57.4258 50.84,-57.4258 22.171,0 35.425,12.1678 44.617,26.3168 l 0,-23.2035 32.996,0 0,149.3675 -32.996,0 0,-84.297 z m -169.285,-65.0705 32.714,0 0,206.5075 -32.714,0 0,-206.5075 z m 275.832,115.6995 0,33.668 -32.723,0 0,-149.3675 32.723,0 0,56.8635 c 0,39.609 20.007,59.121 48.679,59.121 l 1.891,0 0,36.215 c -25.149,1.129 -41.645,-14.141 -50.57,-36.5 m 128.949,35.652 c -22.719,0 -38.133,-4.812 -53.821,-12.172 l 8.657,-26.871 c 12.984,5.66 24.879,9.332 40.836,9.332 22.992,0 35.422,-11.308 35.422,-32.527 l 0,-3.68 c -11.082,3.68 -22.45,6.223 -38.391,6.223 -34.895,0 -58.957,-15.844 -58.957,-48.086 l 0,-0.567 c 0,-29.988 23.797,-46.1168 50.566,-46.1168 21.91,0 36.782,9.6208 46.52,21.7848 l 0,-18.6715 31.906,0 0,88.5465 c 0,19.524 -4.863,35.364 -15.41,46.106 -10.016,10.758 -25.965,16.699 -47.328,16.699 m 31.64,-97.598 c 0,-18.964 -16.5,-31.968 -38.132,-31.968 -15.688,0 -27.848,8.207 -27.848,22.636 l 0,0.567 c 0,15.547 12.434,24.887 33.527,24.887 12.981,0 24.075,-2.54 32.453,-5.938 l 0,-10.184"
             inkscape:connector-curvature="0"
             id="path24"
             style="fill:#ffffff;fill-opacity:1;fill-rule:nonzero;stroke:none" /><path
             d="m 903.906,90.5938 32.711,0 0,83.3902 c -11.433,-1.554 -22.293,-3.375 -32.711,-5.398 l 0,-77.9922 z m 183.624,82.5972 0,-0.558 c 0,-24.324 -19.2,-41.016 -41.93,-41.016 -22.44,0 -40.56,16.692 -40.56,41.016 l 0,0.558 c 0,2.286 0.2,4.469 0.5,6.61 -11.489,-0.438 -22.575,-1.09 -33.267,-1.977 -0.089,-1.621 -0.222,-3.222 -0.222,-4.902 l 0,-0.567 c 0,-43.859 31.369,-69.878 64.899,-69.878 23.53,0 38.4,11.316 50.31,27.433 l 0,-11.59 c 0,-29.9919 -15.96,-45.8278 -45.16,-45.8278 -19.48,0 -35.44,5.9336 -50.846,15.8359 L 979.086,62.5938 c 18.387,-11.6016 40.294,-17.8282 63.814,-17.8282 25.7,0 45.71,6.5078 58.69,20.0782 11.9,12.4531 18.12,31.125 18.12,56.3012 l 0,55.558 c -11.13,0.938 -22.03,1.735 -32.61,2.309 0.25,-1.891 0.43,-3.821 0.43,-5.821 M 824.496,146.414 c 8.274,-3.453 13.977,-7.687 13.977,-14.797 l 0,-0.57 c 0,-9.902 -8.11,-16.125 -22.176,-16.125 -11.387,0 -23.918,3.832 -36.317,11.258 -8.953,-4.84 -16.937,-9.7 -24.066,-14.453 l -1,-1.618 c 17.844,-14.7106 40.293,-22.3473 60.57,-22.3473 29.746,0 53.004,15.5623 53.004,46.9613 l 0,0.562 c 0,9.684 -3.078,17.133 -7.961,23.055 -12.976,-3.695 -24.949,-7.719 -36.031,-11.926 M 1398.66,120.73 c -4.19,-1.386 -8.5,-2.136 -13.13,-2.136 -9.31,0 -15.3,3.855 -17.01,12.914 -11.3,2.98 -22.35,5.758 -33.3,8.426 l 0,-8.039 c 0,-32.8169 17.04,-43.8442 41.12,-43.8442 7.7,0 14.06,1.0937 19.71,3.0586 -0.04,1.3125 -0.09,2.6328 -0.09,3.957 0,8.8166 0.95,17.3986 2.7,25.6636 m -237.85,-30.1362 32.72,0 0,77.4842 c -11.17,1.645 -22.03,3.07 -32.72,4.363 l 0,-81.8472 z m 95.46,0 32.73,0 0,60.0272 c -11.13,2.406 -21.99,4.59 -32.73,6.668 l 0,-66.6952"
             inkscape:connector-curvature="0"
             id="path26"
             style="fill:#ffffff;fill-opacity:1;fill-rule:nonzero;stroke:none" /></g></g></g></g></svg>