<?xml version="1.0" encoding="utf-8"?>
<!-- Generator: Adobe Illustrator 13.0.0, SVG Export Plug-In . SVG Version: 6.00 Build 14948)  -->
<!DOCTYPE svg PUBLIC "-//W3C//DTD SVG 1.1//EN" "http://www.w3.org/Graphics/SVG/1.1/DTD/svg11.dtd">
<svg version="1.1" id="RSS" xmlns="http://www.w3.org/2000/svg" xmlns:xlink="http://www.w3.org/1999/xlink" x="0px" y="0px"
	 width="90px" height="90px" viewBox="0 0 90 90" enable-background="new 0 0 90 90" xml:space="preserve">
<g>
	<path fill="#FCFCFC" d="M24.847,14.955c8.085,0.102,16.164,2.03,23.292,5.882c9.124,4.794,16.461,12.62,21.094,21.79
		c3.627,7.142,5.234,15.207,5.146,23.188c-3.29,0.005-6.579,0.006-9.869,0.004c0.189-8.512-2.429-16.986-7.283-23.967
		c-7.18-10.473-19.682-16.899-32.352-16.955C24.853,21.583,24.844,18.269,24.847,14.955z"/>
	<path fill="#FCFCFC" d="M26.233,35.454c9.201-0.188,18.161,4.483,23.42,12.005c3.539,4.902,5.081,11.036,4.936,17.036
		c-2.865,0.016-5.729,0.014-8.598,0.007c-0.145-1.819-0.406-3.634-0.935-5.383c-2.4-8.178-10.359-14.074-18.812-14.454
		C26.227,41.595,26.216,38.525,26.233,35.454z"/>
	<path fill="#FCFCFC" d="M16.009,61.925c1.249-4.742,5.973-8.328,10.919-7.884c4.192,0.193,7.688,3.27,9.281,7.02
		c2.457,6.507-3.011,14.228-9.973,13.977C19.617,75.309,14.074,68.301,16.009,61.925z"/>
</g>
</svg>
