<?xml version="1.0" encoding="utf-8"?>
<!-- Generator: Adobe Illustrator 13.0.0, SVG Export Plug-In . SVG Version: 6.00 Build 14948)  -->
<!DOCTYPE svg PUBLIC "-//W3C//DTD SVG 1.1//EN" "http://www.w3.org/Graphics/SVG/1.1/DTD/svg11.dtd">
<svg version="1.1" id="Layer_2" xmlns="http://www.w3.org/2000/svg" xmlns:xlink="http://www.w3.org/1999/xlink" x="0px" y="0px"
	 width="90px" height="90px" viewBox="0 0 90 90" enable-background="new 0 0 90 90" xml:space="preserve">
<path fill="#FFFFFF" d="M74.998,26.394c-2.207,0.978-4.579,1.639-7.067,1.938c2.542-1.524,4.492-3.937,5.409-6.81
	c-2.378,1.41-5.013,2.434-7.812,2.987c-2.248-2.394-5.445-3.889-8.989-3.889c-6.797,0-12.311,5.513-12.311,12.309
	c0,0.965,0.11,1.907,0.322,2.807C34.318,35.22,25.25,30.321,19.176,22.871c-1.06,1.821-1.667,3.935-1.667,6.19
	c0,4.27,2.174,8.039,5.477,10.245c-2.018-0.063-3.916-0.618-5.576-1.54c-0.001,0.054-0.001,0.105-0.001,0.156
	c0,5.965,4.244,10.94,9.875,12.072c-1.034,0.28-2.119,0.433-3.243,0.433c-0.792,0-1.565-0.079-2.317-0.224
	c1.567,4.892,6.112,8.448,11.5,8.547c-4.214,3.304-9.521,5.27-15.289,5.27c-0.992,0-1.973-0.054-2.936-0.173
	c5.447,3.495,11.919,5.532,18.871,5.532c22.641,0,35.024-18.755,35.024-35.022c0-0.533-0.012-1.063-0.039-1.592
	C71.264,31.029,73.352,28.861,74.998,26.394z"/>
</svg>
